<svg xmlns="http://www.w3.org/2000/svg" viewBox="0 0 2400 800" width="2400" height="800" preserveAspectRatio="xMidYMid slice">
<defs>
<linearGradient id="bg" x1="0" y1="0" x2="1" y2="1"><stop offset="0" stop-color="#20222A"></stop><stop offset="1" stop-color="#17181C"></stop></linearGradient>
<radialGradient id="glow" cx="0.6" cy="0.2" r="0.62"><stop offset="0" stop-color="rgba(78,168,245,0.16)"></stop><stop offset="1" stop-color="rgba(78,168,245,0)"></stop></radialGradient>

<linearGradient id="fade" x1="0" y1="0" x2="0" y2="1"><stop offset="0" stop-color="#17181C" stop-opacity="0"></stop><stop offset="0.65" stop-color="#17181C" stop-opacity="0.45"></stop><stop offset="1" stop-color="#17181C" stop-opacity="0.94"></stop></linearGradient>
</defs>
<rect width="2400" height="800" fill="url(#bg)"></rect>
<rect width="2400" height="800" fill="url(#glow)"></rect>

<g><line x1="865.5" y1="534.4" x2="969.2" y2="679.8" stroke="rgba(255,255,255,0.09)" stroke-width="1"></line><line x1="865.5" y1="534.4" x2="726.1" y2="661.7" stroke="rgba(255,255,255,0.09)" stroke-width="1"></line><line x1="865.5" y1="534.4" x2="710.6" y2="614.5" stroke="rgba(255,255,255,0.09)" stroke-width="1"></line><line x1="865.5" y1="534.4" x2="835.2" y2="634.6" stroke="rgba(255,255,255,0.09)" stroke-width="1"></line><line x1="865.5" y1="534.4" x2="1014.0" y2="603.5" stroke="rgba(255,255,255,0.09)" stroke-width="1"></line><line x1="865.5" y1="534.4" x2="718.4" y2="404.4" stroke="rgba(255,255,255,0.09)" stroke-width="1"></line><line x1="700.8" y1="61.1" x2="866.5" y2="82.6" stroke="rgba(255,255,255,0.09)" stroke-width="1"></line><line x1="700.8" y1="61.1" x2="580.2" y2="73.1" stroke="rgba(255,255,255,0.09)" stroke-width="1"></line><line x1="700.8" y1="61.1" x2="624.3" y2="42.9" stroke="rgba(255,255,255,0.09)" stroke-width="1"></line><line x1="2251.8" y1="355.1" x2="2271.2" y2="518.7" stroke="rgba(255,255,255,0.09)" stroke-width="1"></line><line x1="2251.8" y1="355.1" x2="2065.6" y2="341.7" stroke="rgba(255,255,255,0.09)" stroke-width="1"></line><line x1="2251.8" y1="355.1" x2="2207.6" y2="452.7" stroke="rgba(255,255,255,0.09)" stroke-width="1"></line><line x1="80.5" y1="52.1" x2="224.4" y2="34.0" stroke="rgba(255,255,255,0.09)" stroke-width="1"></line><line x1="80.5" y1="52.1" x2="147.3" y2="231.9" stroke="rgba(255,255,255,0.09)" stroke-width="1"></line><line x1="80.5" y1="52.1" x2="152.2" y2="7.8" stroke="rgba(255,255,255,0.09)" stroke-width="1"></line><line x1="324.4" y1="291.7" x2="324.2" y2="204.3" stroke="rgba(255,255,255,0.09)" stroke-width="1"></line><line x1="324.4" y1="291.7" x2="147.3" y2="231.9" stroke="rgba(255,255,255,0.09)" stroke-width="1"></line><line x1="324.4" y1="291.7" x2="315.4" y2="355.6" stroke="rgba(255,255,255,0.09)" stroke-width="1"></line><line x1="324.4" y1="291.7" x2="169.8" y2="386.0" stroke="rgba(255,255,255,0.09)" stroke-width="1"></line><line x1="324.4" y1="291.7" x2="444.2" y2="436.6" stroke="rgba(255,255,255,0.09)" stroke-width="1"></line><line x1="324.4" y1="291.7" x2="464.4" y2="375.3" stroke="rgba(255,255,255,0.09)" stroke-width="1"></line><line x1="324.4" y1="291.7" x2="420.1" y2="300.8" stroke="rgba(255,255,255,0.09)" stroke-width="1"></line><line x1="324.4" y1="291.7" x2="358.1" y2="461.1" stroke="rgba(255,255,255,0.09)" stroke-width="1"></line><line x1="324.2" y1="204.3" x2="224.4" y2="34.0" stroke="rgba(255,255,255,0.09)" stroke-width="1"></line><line x1="324.2" y1="204.3" x2="147.3" y2="231.9" stroke="rgba(255,255,255,0.09)" stroke-width="1"></line><line x1="324.2" y1="204.3" x2="315.4" y2="355.6" stroke="rgba(255,255,255,0.09)" stroke-width="1"></line><line x1="324.2" y1="204.3" x2="420.1" y2="300.8" stroke="rgba(255,255,255,0.09)" stroke-width="1"></line><line x1="324.2" y1="204.3" x2="456.0" y2="55.8" stroke="rgba(255,255,255,0.09)" stroke-width="1"></line><line x1="324.2" y1="204.3" x2="517.3" y2="203.5" stroke="rgba(255,255,255,0.09)" stroke-width="1"></line><line x1="1539.4" y1="67.9" x2="1375.7" y2="3.7" stroke="rgba(255,255,255,0.09)" stroke-width="1"></line><line x1="1539.4" y1="67.9" x2="1447.5" y2="5.3" stroke="rgba(255,255,255,0.09)" stroke-width="1"></line><line x1="1352.4" y1="344.7" x2="1487.2" y2="280.1" stroke="rgba(255,255,255,0.09)" stroke-width="1"></line><line x1="1352.4" y1="344.7" x2="1343.1" y2="431.3" stroke="rgba(255,255,255,0.09)" stroke-width="1"></line><line x1="1352.4" y1="344.7" x2="1227.1" y2="363.7" stroke="rgba(255,255,255,0.09)" stroke-width="1"></line><line x1="1352.4" y1="344.7" x2="1194.5" y2="357.1" stroke="rgba(255,255,255,0.09)" stroke-width="1"></line><line x1="1352.4" y1="344.7" x2="1419.4" y2="374.8" stroke="rgba(255,255,255,0.09)" stroke-width="1"></line><line x1="1352.4" y1="344.7" x2="1184.7" y2="299.4" stroke="rgba(255,255,255,0.09)" stroke-width="1"></line><line x1="1178.1" y1="700.1" x2="1117.6" y2="787.7" stroke="rgba(255,255,255,0.09)" stroke-width="1"></line><line x1="1178.1" y1="700.1" x2="1188.0" y2="586.0" stroke="rgba(255,255,255,0.09)" stroke-width="1"></line><line x1="1178.1" y1="700.1" x2="1267.8" y2="744.7" stroke="rgba(255,255,255,0.09)" stroke-width="1"></line><line x1="1178.1" y1="700.1" x2="1330.3" y2="724.6" stroke="rgba(255,255,255,0.09)" stroke-width="1"></line><line x1="1178.1" y1="700.1" x2="1014.0" y2="603.5" stroke="rgba(255,255,255,0.09)" stroke-width="1"></line><line x1="465.3" y1="749.6" x2="376.0" y2="627.5" stroke="rgba(255,255,255,0.09)" stroke-width="1"></line><line x1="465.3" y1="749.6" x2="538.2" y2="792.9" stroke="rgba(255,255,255,0.09)" stroke-width="1"></line><line x1="465.3" y1="749.6" x2="349.6" y2="760.8" stroke="rgba(255,255,255,0.09)" stroke-width="1"></line><line x1="465.3" y1="749.6" x2="571.2" y2="698.4" stroke="rgba(255,255,255,0.09)" stroke-width="1"></line><line x1="465.3" y1="749.6" x2="374.4" y2="589.7" stroke="rgba(255,255,255,0.09)" stroke-width="1"></line><line x1="2031.3" y1="338.7" x2="2008.5" y2="214.4" stroke="rgba(255,255,255,0.09)" stroke-width="1"></line><line x1="2031.3" y1="338.7" x2="2065.6" y2="341.7" stroke="rgba(255,255,255,0.09)" stroke-width="1"></line><line x1="2031.3" y1="338.7" x2="2071.9" y2="227.6" stroke="rgba(255,255,255,0.09)" stroke-width="1"></line><line x1="2031.3" y1="338.7" x2="1966.7" y2="391.3" stroke="rgba(255,255,255,0.09)" stroke-width="1"></line><line x1="2276.4" y1="667.3" x2="2324.7" y2="777.0" stroke="rgba(255,255,255,0.09)" stroke-width="1"></line><line x1="2276.4" y1="667.3" x2="2271.2" y2="518.7" stroke="rgba(255,255,255,0.09)" stroke-width="1"></line><line x1="2276.4" y1="667.3" x2="2211.2" y2="616.7" stroke="rgba(255,255,255,0.09)" stroke-width="1"></line><line x1="2276.4" y1="667.3" x2="2248.0" y2="727.1" stroke="rgba(255,255,255,0.09)" stroke-width="1"></line><line x1="2276.4" y1="667.3" x2="2322.5" y2="665.6" stroke="rgba(255,255,255,0.09)" stroke-width="1"></line><line x1="2276.4" y1="667.3" x2="2302.3" y2="657.6" stroke="rgba(255,255,255,0.09)" stroke-width="1"></line><line x1="2276.4" y1="667.3" x2="2327.3" y2="715.7" stroke="rgba(255,255,255,0.09)" stroke-width="1"></line><line x1="1117.6" y1="787.7" x2="969.2" y2="679.8" stroke="rgba(255,255,255,0.09)" stroke-width="1"></line><line x1="1117.6" y1="787.7" x2="1267.8" y2="744.7" stroke="rgba(255,255,255,0.09)" stroke-width="1"></line><line x1="2324.7" y1="777.0" x2="2211.2" y2="616.7" stroke="rgba(255,255,255,0.09)" stroke-width="1"></line><line x1="2324.7" y1="777.0" x2="2248.0" y2="727.1" stroke="rgba(255,255,255,0.09)" stroke-width="1"></line><line x1="2324.7" y1="777.0" x2="2322.5" y2="665.6" stroke="rgba(255,255,255,0.09)" stroke-width="1"></line><line x1="2324.7" y1="777.0" x2="2302.3" y2="657.6" stroke="rgba(255,255,255,0.09)" stroke-width="1"></line><line x1="2324.7" y1="777.0" x2="2327.3" y2="715.7" stroke="rgba(255,255,255,0.09)" stroke-width="1"></line><line x1="1472.4" y1="666.9" x2="1411.7" y2="548.9" stroke="rgba(255,255,255,0.09)" stroke-width="1"></line><line x1="1472.4" y1="666.9" x2="1330.3" y2="724.6" stroke="rgba(255,255,255,0.09)" stroke-width="1"></line><line x1="500.5" y1="43.6" x2="580.2" y2="73.1" stroke="rgba(255,255,255,0.09)" stroke-width="1"></line><line x1="500.5" y1="43.6" x2="624.3" y2="42.9" stroke="rgba(255,255,255,0.09)" stroke-width="1"></line><line x1="500.5" y1="43.6" x2="456.0" y2="55.8" stroke="rgba(255,255,255,0.09)" stroke-width="1"></line><line x1="500.5" y1="43.6" x2="517.3" y2="203.5" stroke="rgba(255,255,255,0.09)" stroke-width="1"></line><line x1="1046.0" y1="177.1" x2="1120.9" y2="317.7" stroke="rgba(255,255,255,0.09)" stroke-width="1"></line><line x1="1046.0" y1="177.1" x2="873.2" y2="178.6" stroke="rgba(255,255,255,0.09)" stroke-width="1"></line><line x1="1046.0" y1="177.1" x2="1125.8" y2="23.5" stroke="rgba(255,255,255,0.09)" stroke-width="1"></line><line x1="1046.0" y1="177.1" x2="1184.7" y2="299.4" stroke="rgba(255,255,255,0.09)" stroke-width="1"></line><line x1="1046.0" y1="177.1" x2="878.5" y2="280.5" stroke="rgba(255,255,255,0.09)" stroke-width="1"></line><line x1="1046.0" y1="177.1" x2="938.0" y2="131.3" stroke="rgba(255,255,255,0.09)" stroke-width="1"></line><line x1="224.4" y1="34.0" x2="152.2" y2="7.8" stroke="rgba(255,255,255,0.09)" stroke-width="1"></line><line x1="147.3" y1="231.9" x2="169.8" y2="386.0" stroke="rgba(255,255,255,0.09)" stroke-width="1"></line><line x1="147.3" y1="231.9" x2="46.9" y2="373.3" stroke="rgba(255,255,255,0.09)" stroke-width="1"></line><line x1="315.4" y1="355.6" x2="169.8" y2="386.0" stroke="rgba(255,255,255,0.09)" stroke-width="1"></line><line x1="315.4" y1="355.6" x2="444.2" y2="436.6" stroke="rgba(255,255,255,0.09)" stroke-width="1"></line><line x1="315.4" y1="355.6" x2="464.4" y2="375.3" stroke="rgba(255,255,255,0.09)" stroke-width="1"></line><line x1="315.4" y1="355.6" x2="420.1" y2="300.8" stroke="rgba(255,255,255,0.09)" stroke-width="1"></line><line x1="315.4" y1="355.6" x2="358.1" y2="461.1" stroke="rgba(255,255,255,0.09)" stroke-width="1"></line><line x1="2271.2" y1="518.7" x2="2211.2" y2="616.7" stroke="rgba(255,255,255,0.09)" stroke-width="1"></line><line x1="2271.2" y1="518.7" x2="2207.6" y2="452.7" stroke="rgba(255,255,255,0.09)" stroke-width="1"></line><line x1="2271.2" y1="518.7" x2="2322.5" y2="665.6" stroke="rgba(255,255,255,0.09)" stroke-width="1"></line><line x1="2271.2" y1="518.7" x2="2302.3" y2="657.6" stroke="rgba(255,255,255,0.09)" stroke-width="1"></line><line x1="1487.2" y1="280.1" x2="1419.4" y2="374.8" stroke="rgba(255,255,255,0.09)" stroke-width="1"></line><line x1="1487.2" y1="280.1" x2="1616.5" y2="381.3" stroke="rgba(255,255,255,0.09)" stroke-width="1"></line><line x1="1487.2" y1="280.1" x2="1674.1" y2="322.6" stroke="rgba(255,255,255,0.09)" stroke-width="1"></line><line x1="547.4" y1="450.8" x2="444.2" y2="436.6" stroke="rgba(255,255,255,0.09)" stroke-width="1"></line><line x1="547.4" y1="450.8" x2="464.4" y2="375.3" stroke="rgba(255,255,255,0.09)" stroke-width="1"></line><line x1="547.4" y1="450.8" x2="420.1" y2="300.8" stroke="rgba(255,255,255,0.09)" stroke-width="1"></line><line x1="547.4" y1="450.8" x2="358.1" y2="461.1" stroke="rgba(255,255,255,0.09)" stroke-width="1"></line><line x1="547.4" y1="450.8" x2="564.8" y2="327.4" stroke="rgba(255,255,255,0.09)" stroke-width="1"></line><line x1="547.4" y1="450.8" x2="648.7" y2="489.7" stroke="rgba(255,255,255,0.09)" stroke-width="1"></line><line x1="547.4" y1="450.8" x2="718.4" y2="404.4" stroke="rgba(255,255,255,0.09)" stroke-width="1"></line><line x1="2008.5" y1="214.4" x2="2106.7" y2="62.9" stroke="rgba(255,255,255,0.09)" stroke-width="1"></line><line x1="2008.5" y1="214.4" x2="1894.9" y2="62.9" stroke="rgba(255,255,255,0.09)" stroke-width="1"></line><line x1="2008.5" y1="214.4" x2="2065.6" y2="341.7" stroke="rgba(255,255,255,0.09)" stroke-width="1"></line><line x1="2008.5" y1="214.4" x2="2071.9" y2="227.6" stroke="rgba(255,255,255,0.09)" stroke-width="1"></line><line x1="2008.5" y1="214.4" x2="1824.5" y2="187.7" stroke="rgba(255,255,255,0.09)" stroke-width="1"></line><line x1="2008.5" y1="214.4" x2="2132.6" y2="60.2" stroke="rgba(255,255,255,0.09)" stroke-width="1"></line><line x1="2008.5" y1="214.4" x2="1966.7" y2="391.3" stroke="rgba(255,255,255,0.09)" stroke-width="1"></line><line x1="247.4" y1="773.3" x2="125.2" y2="680.9" stroke="rgba(255,255,255,0.09)" stroke-width="1"></line><line x1="247.4" y1="773.3" x2="376.0" y2="627.5" stroke="rgba(255,255,255,0.09)" stroke-width="1"></line><line x1="247.4" y1="773.3" x2="349.6" y2="760.8" stroke="rgba(255,255,255,0.09)" stroke-width="1"></line><line x1="866.5" y1="82.6" x2="873.2" y2="178.6" stroke="rgba(255,255,255,0.09)" stroke-width="1"></line><line x1="866.5" y1="82.6" x2="878.5" y2="280.5" stroke="rgba(255,255,255,0.09)" stroke-width="1"></line><line x1="866.5" y1="82.6" x2="938.0" y2="131.3" stroke="rgba(255,255,255,0.09)" stroke-width="1"></line><line x1="1188.0" y1="586.0" x2="1267.8" y2="744.7" stroke="rgba(255,255,255,0.09)" stroke-width="1"></line><line x1="1188.0" y1="586.0" x2="1330.3" y2="724.6" stroke="rgba(255,255,255,0.09)" stroke-width="1"></line><line x1="1188.0" y1="586.0" x2="1014.0" y2="603.5" stroke="rgba(255,255,255,0.09)" stroke-width="1"></line><line x1="969.2" y1="679.8" x2="835.2" y2="634.6" stroke="rgba(255,255,255,0.09)" stroke-width="1"></line><line x1="969.2" y1="679.8" x2="1014.0" y2="603.5" stroke="rgba(255,255,255,0.09)" stroke-width="1"></line><line x1="1267.8" y1="744.7" x2="1330.3" y2="724.6" stroke="rgba(255,255,255,0.09)" stroke-width="1"></line><line x1="726.1" y1="661.7" x2="710.6" y2="614.5" stroke="rgba(255,255,255,0.09)" stroke-width="1"></line><line x1="726.1" y1="661.7" x2="835.2" y2="634.6" stroke="rgba(255,255,255,0.09)" stroke-width="1"></line><line x1="726.1" y1="661.7" x2="648.7" y2="489.7" stroke="rgba(255,255,255,0.09)" stroke-width="1"></line><line x1="726.1" y1="661.7" x2="571.2" y2="698.4" stroke="rgba(255,255,255,0.09)" stroke-width="1"></line><line x1="1375.7" y1="3.7" x2="1447.5" y2="5.3" stroke="rgba(255,255,255,0.09)" stroke-width="1"></line><line x1="1343.1" y1="431.3" x2="1227.1" y2="363.7" stroke="rgba(255,255,255,0.09)" stroke-width="1"></line><line x1="1343.1" y1="431.3" x2="1194.5" y2="357.1" stroke="rgba(255,255,255,0.09)" stroke-width="1"></line><line x1="1343.1" y1="431.3" x2="1419.4" y2="374.8" stroke="rgba(255,255,255,0.09)" stroke-width="1"></line><line x1="1343.1" y1="431.3" x2="1411.7" y2="548.9" stroke="rgba(255,255,255,0.09)" stroke-width="1"></line><line x1="2106.7" y1="62.9" x2="2071.9" y2="227.6" stroke="rgba(255,255,255,0.09)" stroke-width="1"></line><line x1="2106.7" y1="62.9" x2="2132.6" y2="60.2" stroke="rgba(255,255,255,0.09)" stroke-width="1"></line><line x1="169.8" y1="386.0" x2="126.6" y2="551.6" stroke="rgba(255,255,255,0.09)" stroke-width="1"></line><line x1="169.8" y1="386.0" x2="46.9" y2="373.3" stroke="rgba(255,255,255,0.09)" stroke-width="1"></line><line x1="169.8" y1="386.0" x2="112.6" y2="525.6" stroke="rgba(255,255,255,0.09)" stroke-width="1"></line><line x1="125.2" y1="680.9" x2="126.6" y2="551.6" stroke="rgba(255,255,255,0.09)" stroke-width="1"></line><line x1="125.2" y1="680.9" x2="21.7" y2="634.1" stroke="rgba(255,255,255,0.09)" stroke-width="1"></line><line x1="125.2" y1="680.9" x2="112.6" y2="525.6" stroke="rgba(255,255,255,0.09)" stroke-width="1"></line><line x1="125.2" y1="680.9" x2="28.3" y2="790.3" stroke="rgba(255,255,255,0.09)" stroke-width="1"></line><line x1="1036.9" y1="387.8" x2="1120.9" y2="317.7" stroke="rgba(255,255,255,0.09)" stroke-width="1"></line><line x1="1036.9" y1="387.8" x2="1227.1" y2="363.7" stroke="rgba(255,255,255,0.09)" stroke-width="1"></line><line x1="1036.9" y1="387.8" x2="1194.5" y2="357.1" stroke="rgba(255,255,255,0.09)" stroke-width="1"></line><line x1="1036.9" y1="387.8" x2="1184.7" y2="299.4" stroke="rgba(255,255,255,0.09)" stroke-width="1"></line><line x1="1036.9" y1="387.8" x2="878.5" y2="280.5" stroke="rgba(255,255,255,0.09)" stroke-width="1"></line><line x1="2211.2" y1="616.7" x2="2207.6" y2="452.7" stroke="rgba(255,255,255,0.09)" stroke-width="1"></line><line x1="2211.2" y1="616.7" x2="2248.0" y2="727.1" stroke="rgba(255,255,255,0.09)" stroke-width="1"></line><line x1="2211.2" y1="616.7" x2="2322.5" y2="665.6" stroke="rgba(255,255,255,0.09)" stroke-width="1"></line><line x1="2211.2" y1="616.7" x2="2302.3" y2="657.6" stroke="rgba(255,255,255,0.09)" stroke-width="1"></line><line x1="2211.2" y1="616.7" x2="2101.6" y2="778.3" stroke="rgba(255,255,255,0.09)" stroke-width="1"></line><line x1="2211.2" y1="616.7" x2="2062.8" y2="589.9" stroke="rgba(255,255,255,0.09)" stroke-width="1"></line><line x1="2211.2" y1="616.7" x2="2327.3" y2="715.7" stroke="rgba(255,255,255,0.09)" stroke-width="1"></line><line x1="1120.9" y1="317.7" x2="1227.1" y2="363.7" stroke="rgba(255,255,255,0.09)" stroke-width="1"></line><line x1="1120.9" y1="317.7" x2="1194.5" y2="357.1" stroke="rgba(255,255,255,0.09)" stroke-width="1"></line><line x1="1120.9" y1="317.7" x2="1184.7" y2="299.4" stroke="rgba(255,255,255,0.09)" stroke-width="1"></line><line x1="1227.1" y1="363.7" x2="1194.5" y2="357.1" stroke="rgba(255,255,255,0.09)" stroke-width="1"></line><line x1="1227.1" y1="363.7" x2="1419.4" y2="374.8" stroke="rgba(255,255,255,0.09)" stroke-width="1"></line><line x1="1227.1" y1="363.7" x2="1184.7" y2="299.4" stroke="rgba(255,255,255,0.09)" stroke-width="1"></line><line x1="873.2" y1="178.6" x2="878.5" y2="280.5" stroke="rgba(255,255,255,0.09)" stroke-width="1"></line><line x1="873.2" y1="178.6" x2="938.0" y2="131.3" stroke="rgba(255,255,255,0.09)" stroke-width="1"></line><line x1="444.2" y1="436.6" x2="464.4" y2="375.3" stroke="rgba(255,255,255,0.09)" stroke-width="1"></line><line x1="444.2" y1="436.6" x2="420.1" y2="300.8" stroke="rgba(255,255,255,0.09)" stroke-width="1"></line><line x1="444.2" y1="436.6" x2="358.1" y2="461.1" stroke="rgba(255,255,255,0.09)" stroke-width="1"></line><line x1="444.2" y1="436.6" x2="564.8" y2="327.4" stroke="rgba(255,255,255,0.09)" stroke-width="1"></line><line x1="444.2" y1="436.6" x2="374.4" y2="589.7" stroke="rgba(255,255,255,0.09)" stroke-width="1"></line><line x1="464.4" y1="375.3" x2="420.1" y2="300.8" stroke="rgba(255,255,255,0.09)" stroke-width="1"></line><line x1="464.4" y1="375.3" x2="358.1" y2="461.1" stroke="rgba(255,255,255,0.09)" stroke-width="1"></line><line x1="464.4" y1="375.3" x2="564.8" y2="327.4" stroke="rgba(255,255,255,0.09)" stroke-width="1"></line><line x1="464.4" y1="375.3" x2="517.3" y2="203.5" stroke="rgba(255,255,255,0.09)" stroke-width="1"></line><line x1="1894.9" y1="62.9" x2="1824.5" y2="187.7" stroke="rgba(255,255,255,0.09)" stroke-width="1"></line><line x1="376.0" y1="627.5" x2="358.1" y2="461.1" stroke="rgba(255,255,255,0.09)" stroke-width="1"></line><line x1="376.0" y1="627.5" x2="349.6" y2="760.8" stroke="rgba(255,255,255,0.09)" stroke-width="1"></line><line x1="376.0" y1="627.5" x2="374.4" y2="589.7" stroke="rgba(255,255,255,0.09)" stroke-width="1"></line><line x1="2065.6" y1="341.7" x2="2071.9" y2="227.6" stroke="rgba(255,255,255,0.09)" stroke-width="1"></line><line x1="2065.6" y1="341.7" x2="2207.6" y2="452.7" stroke="rgba(255,255,255,0.09)" stroke-width="1"></line><line x1="2065.6" y1="341.7" x2="1966.7" y2="391.3" stroke="rgba(255,255,255,0.09)" stroke-width="1"></line><line x1="580.2" y1="73.1" x2="624.3" y2="42.9" stroke="rgba(255,255,255,0.09)" stroke-width="1"></line><line x1="580.2" y1="73.1" x2="456.0" y2="55.8" stroke="rgba(255,255,255,0.09)" stroke-width="1"></line><line x1="580.2" y1="73.1" x2="517.3" y2="203.5" stroke="rgba(255,255,255,0.09)" stroke-width="1"></line><line x1="420.1" y1="300.8" x2="358.1" y2="461.1" stroke="rgba(255,255,255,0.09)" stroke-width="1"></line><line x1="420.1" y1="300.8" x2="564.8" y2="327.4" stroke="rgba(255,255,255,0.09)" stroke-width="1"></line><line x1="420.1" y1="300.8" x2="517.3" y2="203.5" stroke="rgba(255,255,255,0.09)" stroke-width="1"></line><line x1="126.6" y1="551.6" x2="21.7" y2="634.1" stroke="rgba(255,255,255,0.09)" stroke-width="1"></line><line x1="126.6" y1="551.6" x2="46.9" y2="373.3" stroke="rgba(255,255,255,0.09)" stroke-width="1"></line><line x1="126.6" y1="551.6" x2="112.6" y2="525.6" stroke="rgba(255,255,255,0.09)" stroke-width="1"></line><line x1="21.7" y1="634.1" x2="112.6" y2="525.6" stroke="rgba(255,255,255,0.09)" stroke-width="1"></line><line x1="21.7" y1="634.1" x2="28.3" y2="790.3" stroke="rgba(255,255,255,0.09)" stroke-width="1"></line><line x1="1194.5" y1="357.1" x2="1184.7" y2="299.4" stroke="rgba(255,255,255,0.09)" stroke-width="1"></line><line x1="46.9" y1="373.3" x2="112.6" y2="525.6" stroke="rgba(255,255,255,0.09)" stroke-width="1"></line><line x1="358.1" y1="461.1" x2="374.4" y2="589.7" stroke="rgba(255,255,255,0.09)" stroke-width="1"></line><line x1="1419.4" y1="374.8" x2="1616.5" y2="381.3" stroke="rgba(255,255,255,0.09)" stroke-width="1"></line><line x1="1419.4" y1="374.8" x2="1411.7" y2="548.9" stroke="rgba(255,255,255,0.09)" stroke-width="1"></line><line x1="2071.9" y1="227.6" x2="2132.6" y2="60.2" stroke="rgba(255,255,255,0.09)" stroke-width="1"></line><line x1="2071.9" y1="227.6" x2="1966.7" y2="391.3" stroke="rgba(255,255,255,0.09)" stroke-width="1"></line><line x1="2207.6" y1="452.7" x2="2062.8" y2="589.9" stroke="rgba(255,255,255,0.09)" stroke-width="1"></line><line x1="1616.5" y1="381.3" x2="1674.1" y2="322.6" stroke="rgba(255,255,255,0.09)" stroke-width="1"></line><line x1="1616.5" y1="381.3" x2="1614.2" y2="471.2" stroke="rgba(255,255,255,0.09)" stroke-width="1"></line><line x1="538.2" y1="792.9" x2="349.6" y2="760.8" stroke="rgba(255,255,255,0.09)" stroke-width="1"></line><line x1="538.2" y1="792.9" x2="571.2" y2="698.4" stroke="rgba(255,255,255,0.09)" stroke-width="1"></line><line x1="1674.1" y1="322.6" x2="1614.2" y2="471.2" stroke="rgba(255,255,255,0.09)" stroke-width="1"></line><line x1="624.3" y1="42.9" x2="456.0" y2="55.8" stroke="rgba(255,255,255,0.09)" stroke-width="1"></line><line x1="624.3" y1="42.9" x2="517.3" y2="203.5" stroke="rgba(255,255,255,0.09)" stroke-width="1"></line><line x1="456.0" y1="55.8" x2="517.3" y2="203.5" stroke="rgba(255,255,255,0.09)" stroke-width="1"></line><line x1="2248.0" y1="727.1" x2="2322.5" y2="665.6" stroke="rgba(255,255,255,0.09)" stroke-width="1"></line><line x1="2248.0" y1="727.1" x2="2302.3" y2="657.6" stroke="rgba(255,255,255,0.09)" stroke-width="1"></line><line x1="2248.0" y1="727.1" x2="2101.6" y2="778.3" stroke="rgba(255,255,255,0.09)" stroke-width="1"></line><line x1="2248.0" y1="727.1" x2="2327.3" y2="715.7" stroke="rgba(255,255,255,0.09)" stroke-width="1"></line><line x1="1411.7" y1="548.9" x2="1330.3" y2="724.6" stroke="rgba(255,255,255,0.09)" stroke-width="1"></line><line x1="2322.5" y1="665.6" x2="2302.3" y2="657.6" stroke="rgba(255,255,255,0.09)" stroke-width="1"></line><line x1="2322.5" y1="665.6" x2="2327.3" y2="715.7" stroke="rgba(255,255,255,0.09)" stroke-width="1"></line><line x1="2302.3" y1="657.6" x2="2327.3" y2="715.7" stroke="rgba(255,255,255,0.09)" stroke-width="1"></line><line x1="2101.6" y1="778.3" x2="2062.8" y2="589.9" stroke="rgba(255,255,255,0.09)" stroke-width="1"></line><line x1="710.6" y1="614.5" x2="835.2" y2="634.6" stroke="rgba(255,255,255,0.09)" stroke-width="1"></line><line x1="710.6" y1="614.5" x2="648.7" y2="489.7" stroke="rgba(255,255,255,0.09)" stroke-width="1"></line><line x1="710.6" y1="614.5" x2="571.2" y2="698.4" stroke="rgba(255,255,255,0.09)" stroke-width="1"></line><line x1="349.6" y1="760.8" x2="374.4" y2="589.7" stroke="rgba(255,255,255,0.09)" stroke-width="1"></line><line x1="564.8" y1="327.4" x2="648.7" y2="489.7" stroke="rgba(255,255,255,0.09)" stroke-width="1"></line><line x1="564.8" y1="327.4" x2="517.3" y2="203.5" stroke="rgba(255,255,255,0.09)" stroke-width="1"></line><line x1="564.8" y1="327.4" x2="718.4" y2="404.4" stroke="rgba(255,255,255,0.09)" stroke-width="1"></line><line x1="878.5" y1="280.5" x2="938.0" y2="131.3" stroke="rgba(255,255,255,0.09)" stroke-width="1"></line><line x1="835.2" y1="634.6" x2="1014.0" y2="603.5" stroke="rgba(255,255,255,0.09)" stroke-width="1"></line><line x1="648.7" y1="489.7" x2="718.4" y2="404.4" stroke="rgba(255,255,255,0.09)" stroke-width="1"></line></g><g><circle cx="865.5" cy="534.4" r="5.5" fill="#4EA8F5" opacity="0.9"></circle><circle cx="865.5" cy="534.4" r="15" fill="none" stroke="#4EA8F5" stroke-width="1" opacity="0.32"></circle><circle cx="700.8" cy="61.1" r="2.5" fill="rgba(255,255,255,0.11)"></circle><circle cx="2251.8" cy="355.1" r="2.5" fill="rgba(255,255,255,0.11)"></circle><circle cx="80.5" cy="52.1" r="2.5" fill="rgba(255,255,255,0.11)"></circle><circle cx="324.4" cy="291.7" r="2.5" fill="rgba(255,255,255,0.11)"></circle><circle cx="324.2" cy="204.3" r="2.5" fill="rgba(255,255,255,0.11)"></circle><circle cx="1539.4" cy="67.9" r="2.5" fill="rgba(255,255,255,0.11)"></circle><circle cx="1352.4" cy="344.7" r="2.5" fill="rgba(255,255,255,0.11)"></circle><circle cx="1178.1" cy="700.1" r="5.5" fill="#4EA8F5" opacity="0.9"></circle><circle cx="1178.1" cy="700.1" r="15" fill="none" stroke="#4EA8F5" stroke-width="1" opacity="0.32"></circle><circle cx="465.3" cy="749.6" r="2.5" fill="rgba(255,255,255,0.11)"></circle><circle cx="2031.3" cy="338.7" r="2.5" fill="rgba(255,255,255,0.11)"></circle><circle cx="2276.4" cy="667.3" r="4.5" fill="#4EA8F5" opacity="0.75"></circle><circle cx="1117.6" cy="787.7" r="2.5" fill="rgba(255,255,255,0.11)"></circle><circle cx="2324.7" cy="777.0" r="2.5" fill="rgba(255,255,255,0.11)"></circle><circle cx="1472.4" cy="666.9" r="2.5" fill="rgba(255,255,255,0.11)"></circle><circle cx="500.5" cy="43.6" r="2.5" fill="rgba(255,255,255,0.11)"></circle><circle cx="1046.0" cy="177.1" r="5.5" fill="#4EA8F5" opacity="0.9"></circle><circle cx="1046.0" cy="177.1" r="15" fill="none" stroke="#4EA8F5" stroke-width="1" opacity="0.32"></circle><circle cx="224.4" cy="34.0" r="2.5" fill="rgba(255,255,255,0.11)"></circle><circle cx="147.3" cy="231.9" r="2.5" fill="rgba(255,255,255,0.11)"></circle><circle cx="315.4" cy="355.6" r="2.5" fill="rgba(255,255,255,0.11)"></circle><circle cx="2271.2" cy="518.7" r="2.5" fill="rgba(255,255,255,0.11)"></circle><circle cx="1487.2" cy="280.1" r="2.5" fill="rgba(255,255,255,0.11)"></circle><circle cx="547.4" cy="450.8" r="4.5" fill="#4EA8F5" opacity="0.75"></circle><circle cx="2008.5" cy="214.4" r="2.5" fill="rgba(255,255,255,0.11)"></circle><circle cx="247.4" cy="773.3" r="5.5" fill="#4EA8F5" opacity="0.9"></circle><circle cx="247.4" cy="773.3" r="15" fill="none" stroke="#4EA8F5" stroke-width="1" opacity="0.32"></circle><circle cx="866.5" cy="82.6" r="2.5" fill="rgba(255,255,255,0.11)"></circle><circle cx="1188.0" cy="586.0" r="2.5" fill="rgba(255,255,255,0.11)"></circle><circle cx="969.2" cy="679.8" r="2.5" fill="rgba(255,255,255,0.11)"></circle><circle cx="1267.8" cy="744.7" r="2.5" fill="rgba(255,255,255,0.11)"></circle><circle cx="726.1" cy="661.7" r="2.5" fill="rgba(255,255,255,0.11)"></circle><circle cx="1375.7" cy="3.7" r="2.5" fill="rgba(255,255,255,0.11)"></circle><circle cx="1343.1" cy="431.3" r="2.5" fill="rgba(255,255,255,0.11)"></circle><circle cx="2106.7" cy="62.9" r="5.5" fill="#4EA8F5" opacity="0.9"></circle><circle cx="2106.7" cy="62.9" r="15" fill="none" stroke="#4EA8F5" stroke-width="1" opacity="0.32"></circle><circle cx="169.8" cy="386.0" r="4.5" fill="#4EA8F5" opacity="0.75"></circle><circle cx="125.2" cy="680.9" r="2.5" fill="rgba(255,255,255,0.11)"></circle><circle cx="1036.9" cy="387.8" r="2.5" fill="rgba(255,255,255,0.11)"></circle><circle cx="2211.2" cy="616.7" r="2.5" fill="rgba(255,255,255,0.11)"></circle><circle cx="1120.9" cy="317.7" r="2.5" fill="rgba(255,255,255,0.11)"></circle><circle cx="1227.1" cy="363.7" r="2.5" fill="rgba(255,255,255,0.11)"></circle><circle cx="873.2" cy="178.6" r="2.5" fill="rgba(255,255,255,0.11)"></circle><circle cx="444.2" cy="436.6" r="5.5" fill="#4EA8F5" opacity="0.9"></circle><circle cx="444.2" cy="436.6" r="15" fill="none" stroke="#4EA8F5" stroke-width="1" opacity="0.32"></circle><circle cx="152.2" cy="7.8" r="2.5" fill="rgba(255,255,255,0.11)"></circle><circle cx="464.4" cy="375.3" r="2.5" fill="rgba(255,255,255,0.11)"></circle><circle cx="1894.9" cy="62.9" r="2.5" fill="rgba(255,255,255,0.11)"></circle><circle cx="376.0" cy="627.5" r="4.5" fill="#4EA8F5" opacity="0.75"></circle><circle cx="2065.6" cy="341.7" r="2.5" fill="rgba(255,255,255,0.11)"></circle><circle cx="580.2" cy="73.1" r="2.5" fill="rgba(255,255,255,0.11)"></circle><circle cx="420.1" cy="300.8" r="2.5" fill="rgba(255,255,255,0.11)"></circle><circle cx="126.6" cy="551.6" r="5.5" fill="#4EA8F5" opacity="0.9"></circle><circle cx="126.6" cy="551.6" r="15" fill="none" stroke="#4EA8F5" stroke-width="1" opacity="0.32"></circle><circle cx="21.7" cy="634.1" r="2.5" fill="rgba(255,255,255,0.11)"></circle><circle cx="1194.5" cy="357.1" r="2.5" fill="rgba(255,255,255,0.11)"></circle><circle cx="46.9" cy="373.3" r="2.5" fill="rgba(255,255,255,0.11)"></circle><circle cx="358.1" cy="461.1" r="2.5" fill="rgba(255,255,255,0.11)"></circle><circle cx="1419.4" cy="374.8" r="2.5" fill="rgba(255,255,255,0.11)"></circle><circle cx="2071.9" cy="227.6" r="2.5" fill="rgba(255,255,255,0.11)"></circle><circle cx="2207.6" cy="452.7" r="4.5" fill="#4EA8F5" opacity="0.75"></circle><circle cx="1616.5" cy="381.3" r="5.5" fill="#4EA8F5" opacity="0.9"></circle><circle cx="1616.5" cy="381.3" r="15" fill="none" stroke="#4EA8F5" stroke-width="1" opacity="0.32"></circle><circle cx="1125.8" cy="23.5" r="2.5" fill="rgba(255,255,255,0.11)"></circle><circle cx="538.2" cy="792.9" r="2.5" fill="rgba(255,255,255,0.11)"></circle><circle cx="1674.1" cy="322.6" r="2.5" fill="rgba(255,255,255,0.11)"></circle><circle cx="624.3" cy="42.9" r="2.5" fill="rgba(255,255,255,0.11)"></circle><circle cx="456.0" cy="55.8" r="2.5" fill="rgba(255,255,255,0.11)"></circle><circle cx="2248.0" cy="727.1" r="2.5" fill="rgba(255,255,255,0.11)"></circle><circle cx="1411.7" cy="548.9" r="2.5" fill="rgba(255,255,255,0.11)"></circle><circle cx="2322.5" cy="665.6" r="5.5" fill="#4EA8F5" opacity="0.9"></circle><circle cx="2322.5" cy="665.6" r="15" fill="none" stroke="#4EA8F5" stroke-width="1" opacity="0.32"></circle><circle cx="2302.3" cy="657.6" r="2.5" fill="rgba(255,255,255,0.11)"></circle><circle cx="2101.6" cy="778.3" r="4.5" fill="#4EA8F5" opacity="0.75"></circle><circle cx="1184.7" cy="299.4" r="2.5" fill="rgba(255,255,255,0.11)"></circle><circle cx="2062.8" cy="589.9" r="2.5" fill="rgba(255,255,255,0.11)"></circle><circle cx="1614.2" cy="471.2" r="2.5" fill="rgba(255,255,255,0.11)"></circle><circle cx="112.6" cy="525.6" r="2.5" fill="rgba(255,255,255,0.11)"></circle><circle cx="710.6" cy="614.5" r="2.5" fill="rgba(255,255,255,0.11)"></circle><circle cx="349.6" cy="760.8" r="5.5" fill="#4EA8F5" opacity="0.9"></circle><circle cx="349.6" cy="760.8" r="15" fill="none" stroke="#4EA8F5" stroke-width="1" opacity="0.32"></circle><circle cx="28.3" cy="790.3" r="2.5" fill="rgba(255,255,255,0.11)"></circle><circle cx="1824.5" cy="187.7" r="2.5" fill="rgba(255,255,255,0.11)"></circle><circle cx="564.8" cy="327.4" r="2.5" fill="rgba(255,255,255,0.11)"></circle><circle cx="2132.6" cy="60.2" r="2.5" fill="rgba(255,255,255,0.11)"></circle><circle cx="1447.5" cy="5.3" r="4.5" fill="#4EA8F5" opacity="0.75"></circle><circle cx="878.5" cy="280.5" r="2.5" fill="rgba(255,255,255,0.11)"></circle><circle cx="835.2" cy="634.6" r="2.5" fill="rgba(255,255,255,0.11)"></circle><circle cx="648.7" cy="489.7" r="5.5" fill="#4EA8F5" opacity="0.9"></circle><circle cx="648.7" cy="489.7" r="15" fill="none" stroke="#4EA8F5" stroke-width="1" opacity="0.32"></circle><circle cx="571.2" cy="698.4" r="2.5" fill="rgba(255,255,255,0.11)"></circle><circle cx="1330.3" cy="724.6" r="2.5" fill="rgba(255,255,255,0.11)"></circle><circle cx="2327.3" cy="715.7" r="2.5" fill="rgba(255,255,255,0.11)"></circle><circle cx="1014.0" cy="603.5" r="2.5" fill="rgba(255,255,255,0.11)"></circle><circle cx="374.4" cy="589.7" r="2.5" fill="rgba(255,255,255,0.11)"></circle><circle cx="517.3" cy="203.5" r="2.5" fill="rgba(255,255,255,0.11)"></circle><circle cx="718.4" cy="404.4" r="2.5" fill="rgba(255,255,255,0.11)"></circle><circle cx="1966.7" cy="391.3" r="5.5" fill="#4EA8F5" opacity="0.9"></circle><circle cx="1966.7" cy="391.3" r="15" fill="none" stroke="#4EA8F5" stroke-width="1" opacity="0.32"></circle><circle cx="938.0" cy="131.3" r="2.5" fill="rgba(255,255,255,0.11)"></circle></g>
<rect width="2400" height="800" fill="url(#fade)"></rect></svg>